<svg width="24" height="24" viewBox="0 0 24 24" fill="none" xmlns="http://www.w3.org/2000/svg">
<path fill-rule="evenodd" clip-rule="evenodd" d="M12.0495 0C5.42228 0 0 5.53476 0 12.2995C0 17.7317 3.41403 22.344 8.23384 23.9839C8.83632 24.0864 9.03714 23.6765 9.03714 23.369C9.03714 23.0615 9.03714 22.344 9.03714 21.3191C5.72352 22.0365 5.02063 19.6791 5.02063 19.6791C4.51857 18.2442 3.71527 17.8342 3.71527 17.8342C2.51032 17.1167 3.71527 17.1167 3.71527 17.1167C4.92022 17.2192 5.5227 18.3467 5.5227 18.3467C6.62724 20.1916 8.33425 19.6791 9.03714 19.3717C9.13755 18.5517 9.43879 18.0392 9.84044 17.7317C7.1293 17.4242 4.31774 16.3993 4.31774 11.6845C4.31774 10.352 4.81981 9.2246 5.5227 8.40463C5.5227 7.99465 5.02063 6.7647 5.72352 5.12477C5.72352 5.12477 6.72765 4.81729 9.03714 6.35472C10.0413 6.04723 11.0454 5.94474 12.0495 5.94474C13.0536 5.94474 14.0578 6.04723 15.0619 6.35472C17.3714 4.71479 18.3755 5.12477 18.3755 5.12477C19.0784 6.8672 18.5763 8.09715 18.4759 8.40463C19.2792 9.2246 19.6809 10.352 19.6809 11.6845C19.6809 16.3993 16.8693 17.4242 14.1582 17.7317C14.5598 18.1417 14.9615 18.8592 14.9615 19.9866C14.9615 21.6266 14.9615 22.959 14.9615 23.369C14.9615 23.6765 15.1623 24.0864 15.7648 23.9839C20.5846 22.344 23.9986 17.7317 23.9986 12.2995C24.099 5.53476 18.6768 0 12.0495 0Z" fill="white"/>
</svg>
