<svg width="201" height="40" viewBox="0 0 201 40" fill="none" xmlns="http://www.w3.org/2000/svg">
<path fill-rule="evenodd" clip-rule="evenodd" d="M33.1868 29.8681L29.8681 26.5495L23.2307 33.1868L16.5934 26.5495L13.2747 29.8681L23.2307 39.8242L33.1868 29.8681ZM33.1868 3.31868L29.8681 0L23.2307 6.63736L16.5934 0L13.2747 3.31868L23.2307 13.2747L33.1868 3.31868ZM29.8681 13.2821L23.2307 19.9195L16.5934 13.2821L13.2747 16.6008L23.2307 26.5568L33.1868 16.6008L29.8681 13.2821ZM36.5054 6.63736L33.1867 9.95604L39.8241 16.5934L33.1867 23.2308L36.5054 26.5494L46.4615 16.5934L36.5054 6.63736ZM13.2747 23.2308L6.63736 16.5934L13.2747 9.95604L9.95604 6.63736L0 16.5934L9.95604 26.5494L13.2747 23.2308ZM176.793 26V22.1H180.753V26H176.793ZM182.633 14.2V11.4H186.593V14.2H182.633ZM182.713 26V15.18H186.513V26H182.713ZM194.153 26.26C190.693 26.26 188.193 23.72 188.193 20.64V20.6C188.193 17.52 190.713 14.94 194.193 14.94C197.653 14.94 200.153 17.48 200.153 20.56V20.6C200.153 23.68 197.633 26.26 194.153 26.26ZM194.193 23.04C195.573 23.04 196.453 21.94 196.453 20.64V20.6C196.453 19.28 195.493 18.16 194.153 18.16C192.773 18.16 191.893 19.26 191.893 20.56V20.6C191.893 21.92 192.853 23.04 194.193 23.04ZM61.24 26V12H66.64C71.64 12 74.54 14.88 74.54 18.92V18.96C74.54 23 71.6 26 66.56 26H61.24ZM65.1201 22.56H66.7001C69.0201 22.56 70.5601 21.28 70.5601 19.02V18.98C70.5601 16.74 69.0201 15.44 66.7001 15.44H65.1201V22.56ZM74.42 26L79.22 18.88L74.62 12H79.08L81.56 15.94L84.06 12H88.42L83.82 18.84L88.62 26H84.16L81.48 21.78L78.78 26H74.42Z" fill="#39D2DA"/>
<path fill-rule="evenodd" clip-rule="evenodd" d="M90.2402 26V12H94.1202V17.24H99.1002V12H102.98V26H99.1002V20.68H94.1202V26H90.2402ZM105.46 26V12H116.72V15.3H109.3V17.42H116.02V20.48H109.3V22.7H116.82V26H105.46ZM118.8 26V12H125.42C127.56 12 129.04 12.56 129.98 13.52C130.8 14.32 131.22 15.4 131.22 16.78V16.82C131.22 18.96 130.08 20.38 128.34 21.12L131.68 26H127.2L124.38 21.76H122.68V26H118.8ZM122.68 18.72H125.24C126.56 18.72 127.32 18.08 127.32 17.06V17.02C127.32 15.92 126.52 15.36 125.22 15.36H122.68V18.72ZM140.22 26.28C135.9 26.28 132.7 23.06 132.7 19.04V19C132.7 14.98 135.94 11.72 140.26 11.72C144.58 11.72 147.78 14.94 147.78 18.96V19C147.78 23.02 144.54 26.28 140.22 26.28ZM140.26 22.78C142.4 22.78 143.82 21.06 143.82 19.04V19C143.82 16.98 142.36 15.22 140.22 15.22C138.1 15.22 136.68 16.94 136.68 18.96V19C136.68 21.02 138.14 22.78 140.26 22.78ZM149.8 26V12H161.06V15.3H153.64V17.42H160.36V20.48H153.64V22.7H161.16V26H149.8ZM168.64 26.24C166.16 26.24 163.8 25.46 162.08 23.92L164.24 21.34C165.62 22.44 167.16 23.02 168.78 23.02C169.82 23.02 170.38 22.66 170.38 22.06V22.02C170.38 21.44 169.92 21.12 168.02 20.68C165.04 20 162.74 19.16 162.74 16.28V16.24C162.74 13.64 164.8 11.76 168.16 11.76C170.54 11.76 172.4 12.4 173.92 13.62L171.98 16.36C170.7 15.46 169.3 14.98 168.06 14.98C167.12 14.98 166.66 15.38 166.66 15.88V15.92C166.66 16.56 167.14 16.84 169.08 17.28C172.3 17.98 174.3 19.02 174.3 21.64V21.68C174.3 24.54 172.04 26.24 168.64 26.24Z" fill="white"/>
</svg>
