<svg width="14" height="14" viewBox="0 0 14 14" fill="none" xmlns="http://www.w3.org/2000/svg">
<path d="M2.91203 0.833328L4.33336 5.66666H9.66669L11.088 0.833328C11.104 0.778495 11.1372 0.73024 11.1826 0.695668C11.2281 0.661096 11.2835 0.642033 11.3406 0.641287C11.3977 0.64054 11.4535 0.658149 11.4999 0.691521C11.5462 0.724893 11.5806 0.772264 11.598 0.826662L13.928 8.10933C13.949 8.17487 13.9492 8.24531 13.9285 8.31096C13.9079 8.37661 13.8674 8.43426 13.8127 8.476L7.00003 13.6667L0.186694 8.476C0.132087 8.43418 0.0917533 8.37649 0.0712242 8.31084C0.0506951 8.2452 0.0509756 8.17481 0.0720273 8.10933L2.40203 0.826662C2.41936 0.772245 2.45371 0.724832 2.50002 0.691402C2.54632 0.657972 2.60214 0.640292 2.65925 0.640964C2.71636 0.641636 2.77174 0.660624 2.81724 0.695134C2.86275 0.729644 2.89598 0.777852 2.91203 0.832662V0.833328Z" fill="white"/>
</svg>
