<svg width="16" height="16" viewBox="0 0 16 16" fill="none" xmlns="http://www.w3.org/2000/svg">
<path d="M7.94172 0C4.13058 0 1 1.02085 1 2.31392C1 2.65421 1.81665 7.4862 2.15694 9.39177C2.29307 10.2765 4.53893 11.5015 7.94172 11.5015C11.3446 11.5015 13.5224 10.2765 13.7265 9.39177C14.0668 7.4862 14.8834 2.65421 14.8834 2.31392C14.8154 1.02085 11.7529 0 7.94172 0ZM7.94172 9.9362C6.71672 9.9362 5.76393 8.98342 5.76393 7.75842C5.76393 6.53342 6.71672 5.58063 7.94172 5.58063C9.16673 5.58063 10.1195 6.53342 10.1195 7.75842C10.1195 8.91535 9.16673 9.9362 7.94172 9.9362ZM7.94172 2.99449C5.49171 2.99449 3.51807 2.58608 3.51807 2.04171C3.51807 1.49722 5.49171 1.08892 7.94172 1.08892C10.3917 1.08892 12.3654 1.49722 12.3654 2.04171C12.3654 2.58614 10.3917 2.99449 7.94172 2.99449Z" fill="white"/>
<path d="M12.9645 11.2293C12.8284 11.2293 12.7604 11.2974 12.7604 11.2974C12.7604 11.2974 11.059 12.6585 7.99646 12.6585C4.93389 12.6585 3.23252 11.2974 3.23252 11.2974C3.23252 11.2974 3.09639 11.2293 3.02832 11.2293C2.89218 11.2293 2.7561 11.2974 2.7561 11.5016V11.5696C3.02837 12.9987 3.23252 14.0196 3.23252 14.1557C3.43667 15.1766 5.47838 15.9933 7.92839 15.9933C10.3784 15.9933 12.4201 15.1766 12.6243 14.1557C12.6243 14.0196 12.8285 12.9987 13.1007 11.5696V11.5015C13.1687 11.3654 13.1007 11.2293 12.9645 11.2293Z" fill="white"/>
<path d="M7.94171 8.77929C8.54311 8.77929 9.03063 8.29176 9.03063 7.69037C9.03063 7.08897 8.54311 6.60144 7.94171 6.60144C7.34031 6.60144 6.85278 7.08897 6.85278 7.69037C6.85278 8.29176 7.34031 8.77929 7.94171 8.77929Z" fill="white"/>
</svg>
